<svg id="Capa_1" enable-background="new 0 0 511.798 511.798" height="512" viewBox="0 0 511.798 511.798" width="512" xmlns="http://www.w3.org/2000/svg"><g><g><g><path d="m489.368 489.265c-19.932 19.932-52.248 19.932-72.18 0l-143.757-143.758 72.18-72.18 143.757 143.757c19.932 19.933 19.932 52.249 0 72.181z" fill="#d8aa8b"/><path d="m501.2 470.704c-2.688 7.455-7.188 14.373-13.463 20.128-20.227 18.553-51.701 17.281-71.109-2.127l-143.197-143.198 30.402-30.402 143.757 143.758c14.498 14.498 35.55 18.464 53.61 11.841z" fill="#ce9875"/><circle cx="207.747" cy="207.64" fill="#407093" r="200.229"/><path d="m228.373 406.812c-6.935.726-13.994 1.08-21.135 1.062-111.463-.279-201.725-92.522-199.687-203.966 1.991-108.844 90.862-196.482 200.2-196.482 6.966 0 13.853.354 20.622 1.063-100.904 10.31-179.632 95.551-179.632 199.151 0 103.62 78.728 188.861 179.632 199.172z" fill="#365e7d"/><circle cx="207.747" cy="207.64" fill="#f8f6f9" r="151.589"/><path d="m229.438 357.675c-7.077 1.031-14.337 1.557-21.712 1.557-83.709 0-151.569-67.86-151.569-151.592 0-83.709 67.86-151.569 151.569-151.569 7.375 0 14.634.527 21.712 1.557-73.448 10.513-129.88 73.678-129.88 150.012 0 76.357 56.432 139.522 129.88 150.035z" fill="#dddaec"/><path d="m391.114 289.536-101.474 101.474c-13.716 13.716-13.716 35.954 0 49.67 13.716 13.716 35.954 13.716 49.67 0l101.474-101.474c13.716-13.716 13.716-35.954 0-49.67-13.716-13.716-35.954-13.716-49.67 0z" fill="#e27f83"/><path d="m365.832 399.606c8.988 0 17.977-3.423 24.836-10.282l-51.356 51.356c-6.859 6.859-15.848 10.282-24.836 10.282-9.712 0-19.424-3.996-26.45-12.006-12.268-13.985-11.064-35.271 2.091-48.426l50.879-50.879c-13.719 13.719-13.719 35.953 0 49.672 6.859 6.86 15.847 10.283 24.836 10.283z" fill="#c8646d"/></g><g><path d="m298.223 145.083c4.14-8.344.731-18.457-7.613-22.597l-26.109-12.933c-8.344-4.14-18.457-.731-22.597 7.613l-51.666 104.244-25.16-42.079c-4.781-7.998-15.124-10.6-23.122-5.819l-25.006 14.945c-7.985 4.781-10.6 15.124-5.819 23.122l49.577 82.927c3.166 5.293 8.972 8.447 15.124 8.203l35.145-1.384c6.165-.244 11.702-3.832 14.432-9.357z" fill="#95d6a4"/><g fill="#78c2a4"><path d="m200.748 238.987 60.378-121.819c1.346-2.714 3.331-4.894 5.675-6.474l-2.3-1.139c-8.344-4.14-18.457-.731-22.597 7.613l-51.666 104.242z"/><path d="m179.929 294.506-49.577-82.927c-4.781-7.998-2.166-18.341 5.819-23.122l24.003-14.345c-5.266-3.629-12.366-4.098-18.218-.6l-25.006 14.945c-7.985 4.781-10.6 15.124-5.819 23.122l49.577 82.927c3.166 5.293 8.972 8.447 15.124 8.203l14.243-.561c-4.184-1.114-7.857-3.814-10.146-7.642z"/></g></g></g><g><path d="m494.091 411.288-57.351-57.35 9.347-9.347c16.617-16.619 16.617-43.659 0-60.276-8.051-8.05-18.754-12.483-30.139-12.483-3.787 0-7.496.501-11.059 1.452 10.793-32.395 13.423-66.91 7.548-101.015-7.302-42.383-27.293-80.917-57.812-111.438-39.23-39.229-91.393-60.833-146.879-60.831-55.488.002-107.653 21.61-146.888 60.845-80.987 80.988-80.987 212.765 0 293.752 30.52 30.519 69.053 50.511 111.436 57.814 11.877 2.047 23.797 3.063 35.667 3.062 22.213 0 44.229-3.564 65.342-10.596-.949 3.561-1.45 7.266-1.45 11.049 0 11.385 4.434 22.088 12.483 30.138 8.051 8.05 18.754 12.483 30.139 12.483 11.384 0 22.087-4.433 30.138-12.483l9.341-9.341 22.63 22.63c1.465 1.464 3.385 2.197 5.304 2.197s3.839-.732 5.304-2.197c2.929-2.929 2.929-7.678 0-10.606l-22.63-22.63 61.573-61.573 57.35 57.35c16.706 16.706 17.672 43.253 2.199 60.44-8.101 9-19.202 14.131-31.263 14.448-12.054.309-23.411-4.205-31.939-12.734l-14.35-14.35c-2.929-2.929-7.678-2.929-10.606 0-2.93 2.929-2.93 7.677-.001 10.606l14.35 14.35c11.092 11.091 25.72 17.144 41.345 17.143.531 0 1.064-.007 1.597-.021 16.215-.426 31.137-7.319 42.017-19.407 20.81-23.117 19.606-58.732-2.743-81.081zm-319.25-13.658c-39.313-6.774-75.061-25.322-103.376-53.639-75.14-75.14-75.14-197.4 0-272.54 36.401-36.402 84.8-56.45 136.281-56.452 51.48-.002 99.875 20.042 136.271 56.438 28.317 28.317 46.865 64.064 53.638 103.377 6.549 38.02 1.716 76.583-13.963 111.618l-97.247 97.248c-35.03 15.672-73.588 20.501-111.604 13.95zm159.164 37.829c-5.217 5.217-12.153 8.09-19.53 8.09-7.378 0-14.314-2.873-19.531-8.09-5.218-5.217-8.091-12.154-8.091-19.532s2.873-14.314 8.091-19.532l101.474-101.474c5.217-5.217 12.153-8.09 19.531-8.09s14.314 2.873 19.531 8.09c10.77 10.77 10.77 28.293 0 39.063z"/><path d="m320.239 320.216c62.028-62.029 62.028-162.957 0-224.986-62.031-62.028-162.958-62.028-224.987 0-62.028 62.029-62.028 162.957 0 224.986 31.015 31.014 71.754 46.521 112.493 46.521s81.478-15.507 112.494-46.521zm-214.38-10.606c-56.181-56.18-56.181-147.592 0-203.773 28.09-28.09 64.987-42.135 101.886-42.135s73.797 14.045 101.887 42.135c56.181 56.181 56.181 147.593 0 203.773-56.181 56.179-147.595 56.18-203.773 0z"/><path d="m293.938 115.851-26.105-12.938c-5.83-2.895-12.436-3.343-18.603-1.263-6.163 2.079-11.15 6.437-14.042 12.27l-45.566 91.926-18.105-30.282c-6.889-11.528-21.873-15.301-33.407-8.411l-25.015 14.954c-11.518 6.898-15.288 21.882-8.404 33.403l49.584 82.936c4.42 7.376 12.361 11.858 20.896 11.858.316 0 .634-.006.951-.019l35.159-1.38c8.912-.361 16.9-5.545 20.847-13.522l40.899-82.49c1.84-3.711.323-8.211-3.388-10.051-3.713-1.841-8.211-.324-10.052 3.388l-40.902 82.496c-1.516 3.063-4.585 5.053-8.002 5.191l-35.147 1.38c-3.438.114-6.63-1.615-8.391-4.555l-49.579-82.928c-2.646-4.426-1.193-10.186 3.23-12.835l25.008-14.949c4.431-2.648 10.189-1.199 12.836 3.231l25.16 42.08c1.408 2.355 4.013 3.751 6.732 3.645 2.742-.108 5.206-1.705 6.425-4.163l51.67-104.239c1.112-2.244 3.029-3.92 5.397-4.719 2.363-.799 4.899-.625 7.143.487l26.108 12.939c2.244 1.113 3.92 3.03 4.719 5.398.798 2.366.626 4.9-.487 7.141l-18.649 37.61c-1.84 3.711-.323 8.211 3.388 10.051 3.712 1.838 8.21.323 10.052-3.387l18.647-37.607c2.895-5.83 3.343-12.436 1.263-18.602-2.079-6.164-6.436-11.151-12.27-14.044z"/></g></g></svg>